<?xml version="1.0" encoding="utf-8"?>
<!-- Generator: Adobe Illustrator 17.1.0, SVG Export Plug-In . SVG Version: 6.00 Build 0)  -->
<!DOCTYPE svg PUBLIC "-//W3C//DTD SVG 1.1//EN" "http://www.w3.org/Graphics/SVG/1.1/DTD/svg11.dtd">
<svg version="1.1" xmlns="http://www.w3.org/2000/svg" xmlns:xlink="http://www.w3.org/1999/xlink" x="0px" y="0px"
	 viewBox="0 0 159.854 49.333" enable-background="new 0 0 159.854 49.333" xml:space="preserve">
<g id="Layer_1">
	<g>
		<g>
			<path fill="#103E60" stroke="#0B2D40" stroke-width="0.0421" stroke-miterlimit="10" d="M29.114,8.389l1.964,22.579
				c0,0-1.546-0.793-3.359-0.472c-1.813,0.321-2.992,1.597-2.992,1.597l-5.916-21.879c0,0,1.549-1.976,4.859-2.563
				S29.114,8.389,29.114,8.389z M32.194,35.273c0.344,1.943-0.951,3.797-2.894,4.141c-1.943,0.344-3.797-0.951-4.141-2.894
				c-0.344-1.943,0.951-3.797,2.894-4.141S31.849,33.33,32.194,35.273z"/>
		</g>
		<g>
			<path fill="#103E60" stroke="#0B2D40" stroke-width="0.0313" stroke-miterlimit="10" d="M16.596,15.951l4.92,16.118
				c0,0-1.247-0.338-2.516,0.176c-1.269,0.514-1.929,1.624-1.929,1.624L9.385,18.873c0,0,0.821-1.677,3.137-2.615
				C14.839,15.319,16.596,15.951,16.596,15.951z M22.993,35.027c0.551,1.36-0.105,2.909-1.464,3.459
				c-1.36,0.551-2.909-0.105-3.459-1.464c-0.551-1.36,0.105-2.909,1.464-3.459C20.894,33.011,22.442,33.667,22.993,35.027z"/>
		</g>
		<g>
			<path fill="#103E60" stroke="#0B2D40" stroke-width="0.0421" stroke-miterlimit="10" d="M143.05,7.652
				c3.31,0.587,4.859,2.563,4.859,2.563l-5.916,21.879c0,0-1.179-1.276-2.992-1.597c-1.813-0.321-3.359,0.472-3.359,0.472
				l1.964-22.579C137.607,8.389,139.74,7.065,143.05,7.652z M138.668,32.378c1.943,0.344,3.239,2.198,2.894,4.141
				c-0.344,1.943-2.198,3.239-4.141,2.894c-1.943-0.344-3.239-2.198-2.894-4.141S136.725,32.034,138.668,32.378z"/>
		</g>
		<g>
			<path fill="#103E60" stroke="#0B2D40" stroke-width="0.0313" stroke-miterlimit="10" d="M154.198,16.257
				c2.317,0.939,3.137,2.615,3.137,2.615l-7.686,14.997c0,0-0.66-1.11-1.929-1.624c-1.269-0.514-2.516-0.176-2.516-0.176
				l4.92-16.118C150.125,15.951,151.881,15.319,154.198,16.257z M147.187,33.562c1.36,0.551,2.015,2.1,1.464,3.459
				c-0.551,1.36-2.1,2.015-3.459,1.464c-1.36-0.551-2.015-2.1-1.464-3.459C144.278,33.667,145.827,33.011,147.187,33.562z"/>
		</g>
	</g>
</g>
<g id="Layer_4">
</g>
<g id="Layer_2">
	<g>
		<g>
			<path fill="#E5332A" d="M42.942,26.991v9.236h-5.63V10.88h7.517c1.686,0,4.18,0,6.135,1.382c1.652,1.18,2.663,3.202,2.663,6.371
				c0,3.64-1.314,5.932-3.438,7.146l4.281,10.449h-6.337l-3.202-9.236H42.942z M42.942,22.306h1.988c0.472,0,1.349,0,1.921-0.438
				c0.573-0.472,0.944-1.551,0.944-3c0-1.348-0.304-2.359-0.91-2.865c-0.606-0.472-1.449-0.472-1.888-0.472h-2.056V22.306z"/>
			<path fill="#E5332A" d="M63.068,10.88v25.347h-5.899V10.88H63.068z"/>
			<path fill="#E5332A" d="M79.316,15.969H79.08c0,0-2.359-0.775-4.146-0.775c-1.686,0-2.461,0.708-2.461,1.988
				c0,1.921,1.854,2.865,3.81,4.348c2.157,1.618,4.011,3.438,4.011,7.314c0,4.989-3.067,7.584-8.595,7.584
				c-2.933,0-5.09-0.742-5.09-0.742v-4.685h0.235c0,0,2.63,0.91,4.551,0.91c1.786,0,2.798-0.775,2.798-2.258
				c0-2.191-2.292-3.404-4.382-5.09c-1.753-1.416-3.438-3.101-3.438-6.64c0-4.651,2.865-7.247,8.123-7.247
				c2.63,0,4.82,0.641,4.82,0.641V15.969z"/>
			<path fill="#E5332A" d="M89.296,10.88v25.347h-5.899V10.88H89.296z"/>
			<path fill="#E5332A" d="M99.174,10.88v9.876l5.831-9.876h5.696l-6.033,9.842l6.202,15.505h-6.404l-3.742-10.044l-1.55,2.124
				v7.921h-5.765V10.88H99.174z"/>
			<path fill="#E5332A" d="M128.164,33.53c-1.584,2.056-4.214,3.101-7.348,3.101c-3.169,0-5.697-1.045-7.281-3.135
				c-1.719-2.258-2.225-5.696-2.225-9.91c0-4.719,0.641-7.854,2.326-10.011c1.617-2.056,4.146-3.101,7.314-3.101
				c3.168,0,5.729,1.045,7.313,3.135c1.72,2.258,2.226,5.528,2.226,9.708C130.49,28.036,129.85,31.373,128.164,33.53z
				 M123.445,30.464c0.606-1.18,0.809-2.899,0.809-6.91c0-4.011-0.202-5.73-0.809-6.91c-0.506-0.944-1.281-1.517-2.562-1.517
				c-1.248,0-2.022,0.573-2.528,1.517c-0.606,1.18-0.809,2.899-0.809,6.91c0,4.011,0.202,5.73,0.809,6.91
				c0.506,0.944,1.28,1.517,2.528,1.517C122.164,31.98,122.939,31.407,123.445,30.464z"/>
		</g>
	</g>
</g>
<g id="Layer_3">
</g>
<g id="Layer_5">
</g>
</svg>
