<?xml version="1.0" encoding="utf-8"?>
<!-- Generator: Adobe Illustrator 17.1.0, SVG Export Plug-In . SVG Version: 6.00 Build 0)  -->
<!DOCTYPE svg PUBLIC "-//W3C//DTD SVG 1.1//EN" "http://www.w3.org/Graphics/SVG/1.1/DTD/svg11.dtd">
<svg version="1.1" xmlns="http://www.w3.org/2000/svg" xmlns:xlink="http://www.w3.org/1999/xlink" x="0px" y="0px"
	 viewBox="0 0 46.167 157.042" enable-background="new 0 0 46.167 157.042" xml:space="preserve">
<g id="Layer_1">
	<g>
		<g>
			<path fill="#103E60" stroke="#0B2D40" stroke-width="0.0421" stroke-miterlimit="10" d="M7.909,132.025l22.579-1.964
				c0,0-0.793,1.546-0.472,3.359c0.321,1.813,1.597,2.992,1.597,2.992l-21.879,5.916c0,0-1.976-1.549-2.563-4.859
				C6.585,134.159,7.909,132.025,7.909,132.025z M34.793,128.945c1.943-0.344,3.797,0.951,4.141,2.894
				c0.344,1.943-0.951,3.797-2.894,4.141s-3.797-0.951-4.141-2.894C31.555,131.144,32.85,129.29,34.793,128.945z"/>
		</g>
		<g>
			<path fill="#103E60" stroke="#0B2D40" stroke-width="0.0313" stroke-miterlimit="10" d="M15.472,144.544l16.118-4.92
				c0,0-0.338,1.247,0.176,2.516c0.514,1.269,1.624,1.929,1.624,1.929l-14.997,7.686c0,0-1.677-0.821-2.615-3.137
				S15.472,144.544,15.472,144.544z M34.547,138.146c1.36-0.551,2.909,0.105,3.459,1.464c0.551,1.36-0.105,2.909-1.464,3.459
				s-2.909-0.105-3.459-1.464C32.532,140.246,33.188,138.697,34.547,138.146z"/>
		</g>
		<g>
			<path fill="#103E60" stroke="#0B2D40" stroke-width="0.0421" stroke-miterlimit="10" d="M7.172,18.089
				c0.587-3.31,2.563-4.859,2.563-4.859l21.879,5.916c0,0-1.276,1.179-1.597,2.992c-0.321,1.813,0.472,3.359,0.472,3.359
				L7.909,23.533C7.909,23.533,6.585,21.399,7.172,18.089z M31.899,22.471c0.344-1.943,2.198-3.239,4.141-2.894
				c1.943,0.344,3.239,2.198,2.894,4.141s-2.198,3.239-4.141,2.894S31.555,24.414,31.899,22.471z"/>
		</g>
		<g>
			<path fill="#103E60" stroke="#0B2D40" stroke-width="0.0313" stroke-miterlimit="10" d="M15.778,6.941
				c0.939-2.317,2.615-3.137,2.615-3.137L33.39,11.49c0,0-1.11,0.66-1.624,1.929c-0.514,1.269-0.176,2.516-0.176,2.516l-16.118-4.92
				C15.472,11.014,14.839,9.258,15.778,6.941z M33.083,13.953c0.551-1.36,2.1-2.015,3.459-1.464c1.36,0.551,2.015,2.1,1.464,3.459
				c-0.551,1.36-2.1,2.015-3.459,1.464C33.188,16.861,32.532,15.312,33.083,13.953z"/>
		</g>
	</g>
</g>
<g id="Layer_4">
</g>
<g id="Layer_2">
	<g>
		<g>
			<path fill="#E5332A" d="M26.513,118.196h9.235v5.63H10.401v-7.517c0-1.686,0-4.18,1.382-6.135
				c1.18-1.652,3.202-2.663,6.371-2.663c3.641,0,5.933,1.314,7.146,3.438l10.449-4.281v6.337l-9.235,3.202V118.196z M21.827,118.196
				v-1.988c0-0.472,0-1.349-0.438-1.921c-0.472-0.573-1.55-0.944-3-0.944c-1.348,0-2.359,0.304-2.864,0.91
				c-0.473,0.606-0.473,1.449-0.473,1.888v2.056H21.827z"/>
			<path fill="#E5332A" d="M10.401,98.07h25.348v5.899H10.401V98.07z"/>
			<path fill="#E5332A" d="M15.491,81.822v0.236c0,0-0.775,2.359-0.775,4.146c0,1.686,0.708,2.461,1.989,2.461
				c1.921,0,2.864-1.854,4.348-3.81c1.618-2.157,3.438-4.011,7.314-4.011c4.988,0,7.584,3.067,7.584,8.595
				c0,2.933-0.741,5.09-0.741,5.09h-4.686v-0.235c0,0,0.91-2.63,0.91-4.551c0-1.786-0.775-2.798-2.259-2.798
				c-2.19,0-3.404,2.292-5.089,4.382c-1.416,1.753-3.102,3.438-6.641,3.438c-4.651,0-7.247-2.865-7.247-8.123
				c0-2.63,0.641-4.82,0.641-4.82H15.491z"/>
			<path fill="#E5332A" d="M10.401,71.843h25.348v5.899H10.401V71.843z"/>
			<path fill="#E5332A" d="M10.401,61.965h9.876l-9.876-5.831v-5.696l9.843,6.033l15.505-6.202v6.404l-10.045,3.742l2.124,1.55
				h7.921v5.765H10.401V61.965z"/>
			<path fill="#E5332A" d="M33.052,32.975c2.056,1.584,3.101,4.214,3.101,7.348c0,3.169-1.045,5.697-3.135,7.281
				c-2.258,1.719-5.696,2.225-9.909,2.225c-4.72,0-7.854-0.641-10.011-2.326c-2.057-1.617-3.102-4.146-3.102-7.314
				c0-3.168,1.045-5.729,3.135-7.313c2.259-1.72,5.528-2.225,9.708-2.225C27.558,30.649,30.895,31.289,33.052,32.975z
				 M29.985,37.693c-1.18-0.606-2.899-0.809-6.91-0.809s-5.73,0.202-6.91,0.809c-0.943,0.506-1.517,1.281-1.517,2.562
				c0,1.248,0.573,2.022,1.517,2.528c1.18,0.606,2.899,0.81,6.91,0.81s5.73-0.203,6.91-0.81c0.943-0.506,1.517-1.28,1.517-2.528
				C31.501,38.975,30.928,38.199,29.985,37.693z"/>
		</g>
	</g>
</g>
<g id="Layer_3">
</g>
<g id="Layer_5">
</g>
</svg>
