<?xml version="1.0" encoding="utf-8"?>
<!-- Generator: Adobe Illustrator 17.1.0, SVG Export Plug-In . SVG Version: 6.00 Build 0)  -->
<!DOCTYPE svg PUBLIC "-//W3C//DTD SVG 1.1//EN" "http://www.w3.org/Graphics/SVG/1.1/DTD/svg11.dtd">
<svg version="1.1" xmlns="http://www.w3.org/2000/svg" xmlns:xlink="http://www.w3.org/1999/xlink" x="0px" y="0px"
	 viewBox="0 0 46.75 155.5" enable-background="new 0 0 46.75 155.5" xml:space="preserve">
<g id="Layer_1">
	<g>
		<g>
			<path fill="#103E60" stroke="#0B2D40" stroke-width="0.0421" stroke-miterlimit="10" d="M38.178,23.74l-22.579,1.964
				c0,0,0.793-1.546,0.472-3.359c-0.321-1.813-1.597-2.992-1.597-2.992l21.879-5.916c0,0,1.976,1.549,2.563,4.859
				C39.502,21.606,38.178,23.74,38.178,23.74z M11.294,26.82c-1.943,0.344-3.797-0.951-4.141-2.894
				c-0.344-1.943,0.951-3.797,2.894-4.141c1.943-0.344,3.797,0.951,4.141,2.894S13.237,26.476,11.294,26.82z"/>
		</g>
		<g>
			<path fill="#103E60" stroke="#0B2D40" stroke-width="0.0313" stroke-miterlimit="10" d="M30.616,11.222l-16.118,4.92
				c0,0,0.338-1.247-0.176-2.516c-0.514-1.269-1.624-1.929-1.624-1.929l14.997-7.686c0,0,1.677,0.821,2.615,3.137
				C31.248,9.465,30.616,11.222,30.616,11.222z M11.54,17.619c-1.36,0.551-2.909-0.105-3.459-1.464s0.105-2.909,1.464-3.459
				s2.909,0.105,3.459,1.464C13.555,15.52,12.9,17.068,11.54,17.619z"/>
		</g>
		<g>
			<path fill="#103E60" stroke="#0B2D40" stroke-width="0.0421" stroke-miterlimit="10" d="M38.915,137.676
				c-0.587,3.31-2.563,4.859-2.563,4.859l-21.879-5.916c0,0,1.276-1.179,1.597-2.992s-0.472-3.359-0.472-3.359l22.579,1.964
				C38.178,132.233,39.502,134.366,38.915,137.676z M14.189,133.294c-0.344,1.943-2.198,3.239-4.141,2.894
				c-1.943-0.344-3.239-2.198-2.894-4.141c0.344-1.943,2.198-3.239,4.141-2.894C13.237,129.497,14.533,131.351,14.189,133.294z"/>
		</g>
		<g>
			<path fill="#103E60" stroke="#0B2D40" stroke-width="0.0313" stroke-miterlimit="10" d="M30.31,148.824
				c-0.939,2.317-2.615,3.137-2.615,3.137l-14.997-7.686c0,0,1.11-0.66,1.624-1.929c0.514-1.269,0.176-2.516,0.176-2.516
				l16.118,4.92C30.616,144.751,31.248,146.507,30.31,148.824z M13.005,141.813c-0.551,1.36-2.1,2.015-3.459,1.464
				s-2.015-2.1-1.464-3.459s2.1-2.015,3.459-1.464S13.555,140.453,13.005,141.813z"/>
		</g>
	</g>
</g>
<g id="Layer_4">
</g>
<g id="Layer_2">
	<g>
		<g>
			<path fill="#E5332A" d="M19.574,37.568h-9.236v-5.629h25.347v7.517c0,1.685,0,4.18-1.382,6.135
				c-1.18,1.651-3.202,2.663-6.371,2.663c-3.64,0-5.932-1.314-7.146-3.438l-10.449,4.281v-6.337l9.236-3.202V37.568z M24.259,37.568
				v1.989c0,0.472,0,1.348,0.438,1.921c0.472,0.573,1.551,0.944,3,0.944c1.348,0,2.359-0.304,2.865-0.91
				c0.472-0.607,0.472-1.45,0.472-1.888v-2.056H24.259z"/>
			<path fill="#E5332A" d="M35.686,57.694H10.338v-5.898h25.347V57.694z"/>
			<path fill="#E5332A" d="M30.596,73.942v-0.236c0,0,0.775-2.359,0.775-4.146c0-1.685-0.708-2.46-1.988-2.46
				c-1.921,0-2.865,1.854-4.348,3.809c-1.618,2.157-3.438,4.011-7.314,4.011c-4.989,0-7.584-3.067-7.584-8.595
				c0-2.933,0.742-5.09,0.742-5.09h4.685v0.236c0,0-0.91,2.629-0.91,4.55c0,1.786,0.775,2.797,2.258,2.797
				c2.191,0,3.404-2.292,5.09-4.382c1.416-1.752,3.101-3.438,6.64-3.438c4.651,0,7.247,2.865,7.247,8.124
				c0,2.629-0.641,4.82-0.641,4.82H30.596z"/>
			<path fill="#E5332A" d="M35.686,83.921H10.338v-5.898h25.347V83.921z"/>
			<path fill="#E5332A" d="M35.686,93.799H25.81l9.876,5.832v5.696l-9.842-6.034l-15.505,6.202v-6.404l10.044-3.741l-2.124-1.551
				h-7.921v-5.764h25.347V93.799z"/>
			<path fill="#E5332A" d="M13.035,122.79c-2.056-1.584-3.101-4.213-3.101-7.348c0-3.168,1.045-5.696,3.135-7.281
				c2.258-1.719,5.696-2.225,9.91-2.225c4.719,0,7.854,0.641,10.011,2.326c2.056,1.618,3.101,4.146,3.101,7.314
				s-1.045,5.73-3.135,7.314c-2.258,1.719-5.528,2.225-9.708,2.225C18.529,125.116,15.192,124.475,13.035,122.79z M16.102,118.071
				c1.18,0.607,2.899,0.809,6.91,0.809c4.011,0,5.73-0.202,6.91-0.809c0.944-0.505,1.517-1.281,1.517-2.562
				c0-1.247-0.573-2.022-1.517-2.528c-1.18-0.607-2.899-0.809-6.91-0.809c-4.011,0-5.73,0.202-6.91,0.809
				c-0.944,0.505-1.517,1.281-1.517,2.528C14.585,116.79,15.158,117.565,16.102,118.071z"/>
		</g>
	</g>
</g>
<g id="Layer_3">
</g>
<g id="Layer_5">
</g>
</svg>
