<?xml version="1.0" encoding="utf-8"?>
<!-- Generator: Adobe Illustrator 17.1.0, SVG Export Plug-In . SVG Version: 6.00 Build 0)  -->
<!DOCTYPE svg PUBLIC "-//W3C//DTD SVG 1.1//EN" "http://www.w3.org/Graphics/SVG/1.1/DTD/svg11.dtd">
<svg version="1.1" xmlns="http://www.w3.org/2000/svg" xmlns:xlink="http://www.w3.org/1999/xlink" x="0px" y="0px"
	 viewBox="0 0 161.083 43.458" enable-background="new 0 0 161.083 43.458" xml:space="preserve">
<g id="Layer_1">
	<g>
		<g>
			<path fill="#103E60" stroke="#0B2D40" stroke-width="0.0421" stroke-miterlimit="10" d="M30.367,6.323l1.964,22.579
				c0,0-1.546-0.793-3.359-0.472c-1.813,0.321-2.992,1.597-2.992,1.597L20.065,8.149c0,0,1.549-1.976,4.859-2.563
				S30.367,6.323,30.367,6.323z M33.448,33.207c0.344,1.943-0.951,3.797-2.894,4.141s-3.797-0.951-4.141-2.894
				c-0.344-1.943,0.951-3.797,2.894-4.141S33.103,31.264,33.448,33.207z"/>
		</g>
		<g>
			<path fill="#103E60" stroke="#0B2D40" stroke-width="0.0313" stroke-miterlimit="10" d="M17.849,13.886l4.92,16.118
				c0,0-1.247-0.338-2.516,0.176c-1.269,0.514-1.929,1.624-1.929,1.624l-7.686-14.997c0,0,0.821-1.677,3.137-2.615
				C16.093,13.253,17.849,13.886,17.849,13.886z M24.247,32.961c0.551,1.36-0.105,2.909-1.464,3.459
				c-1.36,0.551-2.909-0.105-3.459-1.464c-0.551-1.36,0.105-2.909,1.464-3.459C22.147,30.946,23.696,31.601,24.247,32.961z"/>
		</g>
		<g>
			<path fill="#103E60" stroke="#0B2D40" stroke-width="0.0421" stroke-miterlimit="10" d="M144.304,5.586
				c3.31,0.587,4.859,2.563,4.859,2.563l-5.916,21.879c0,0-1.179-1.276-2.992-1.597c-1.813-0.321-3.359,0.472-3.359,0.472
				l1.964-22.579C138.86,6.323,140.994,4.999,144.304,5.586z M139.921,30.313c1.943,0.344,3.239,2.198,2.894,4.141
				c-0.344,1.943-2.198,3.239-4.141,2.894s-3.239-2.198-2.894-4.141S137.979,29.968,139.921,30.313z"/>
		</g>
		<g>
			<path fill="#103E60" stroke="#0B2D40" stroke-width="0.0313" stroke-miterlimit="10" d="M155.451,14.191
				c2.317,0.939,3.137,2.615,3.137,2.615l-7.686,14.997c0,0-0.66-1.11-1.929-1.624c-1.269-0.514-2.516-0.176-2.516-0.176
				l4.92-16.118C151.378,13.886,153.135,13.253,155.451,14.191z M148.44,31.497c1.36,0.551,2.015,2.1,1.464,3.459
				c-0.551,1.36-2.1,2.015-3.459,1.464c-1.36-0.551-2.015-2.1-1.464-3.459C145.532,31.601,147.081,30.946,148.44,31.497z"/>
		</g>
	</g>
</g>
<g id="Layer_4">
</g>
<g id="Layer_2">
	<g>
		<g>
			<path fill="#E5332A" d="M44.196,24.926v9.235h-5.629V8.813h7.517c1.685,0,4.18,0,6.135,1.382c1.651,1.18,2.663,3.202,2.663,6.371
				c0,3.641-1.314,5.933-3.438,7.146l4.281,10.449h-6.337l-3.202-9.235H44.196z M44.196,20.24h1.989c0.472,0,1.348,0,1.921-0.438
				c0.573-0.472,0.944-1.55,0.944-3c0-1.348-0.304-2.359-0.91-2.864c-0.607-0.473-1.45-0.473-1.888-0.473h-2.056V20.24z"/>
			<path fill="#E5332A" d="M64.322,8.813v25.348h-5.898V8.813H64.322z"/>
			<path fill="#E5332A" d="M80.57,13.903h-0.236c0,0-2.359-0.775-4.146-0.775c-1.685,0-2.46,0.708-2.46,1.989
				c0,1.921,1.854,2.864,3.809,4.348c2.157,1.618,4.011,3.438,4.011,7.314c0,4.988-3.067,7.584-8.595,7.584
				c-2.933,0-5.09-0.741-5.09-0.741v-4.686h0.236c0,0,2.629,0.91,4.55,0.91c1.786,0,2.797-0.775,2.797-2.259
				c0-2.19-2.292-3.404-4.382-5.089c-1.752-1.416-3.438-3.102-3.438-6.641c0-4.651,2.865-7.247,8.124-7.247
				c2.629,0,4.82,0.641,4.82,0.641V13.903z"/>
			<path fill="#E5332A" d="M90.549,8.813v25.348h-5.898V8.813H90.549z"/>
			<path fill="#E5332A" d="M100.427,8.813v9.876l5.832-9.876h5.696l-6.034,9.843l6.202,15.505h-6.404l-3.741-10.045l-1.551,2.124
				v7.921h-5.764V8.813H100.427z"/>
			<path fill="#E5332A" d="M129.418,31.465c-1.584,2.056-4.213,3.101-7.348,3.101c-3.168,0-5.696-1.045-7.281-3.135
				c-1.719-2.258-2.225-5.696-2.225-9.909c0-4.72,0.641-7.854,2.326-10.011c1.618-2.057,4.146-3.102,7.314-3.102
				s5.73,1.045,7.314,3.135c1.719,2.259,2.225,5.528,2.225,9.708C131.744,25.971,131.103,29.308,129.418,31.465z M124.699,28.397
				c0.607-1.18,0.809-2.899,0.809-6.91s-0.202-5.73-0.809-6.91c-0.505-0.943-1.281-1.517-2.562-1.517
				c-1.247,0-2.022,0.573-2.528,1.517c-0.607,1.18-0.809,2.899-0.809,6.91s0.202,5.73,0.809,6.91
				c0.505,0.943,1.281,1.517,2.528,1.517C123.418,29.914,124.193,29.341,124.699,28.397z"/>
		</g>
	</g>
</g>
<g id="Layer_3">
</g>
<g id="Layer_5">
</g>
</svg>
