<?xml version="1.0" encoding="utf-8"?>
<!-- Generator: Adobe Illustrator 17.1.0, SVG Export Plug-In . SVG Version: 6.00 Build 0)  -->
<!DOCTYPE svg PUBLIC "-//W3C//DTD SVG 1.1//EN" "http://www.w3.org/Graphics/SVG/1.1/DTD/svg11.dtd">
<svg version="1.1" xmlns="http://www.w3.org/2000/svg" xmlns:xlink="http://www.w3.org/1999/xlink" x="0px" y="0px"
	 viewBox="0 0 161.083 47.292" enable-background="new 0 0 161.083 47.292" xml:space="preserve">
<g id="Layer_1">
	<g>
		<g>
			<path fill="#103E60" stroke="#0B2D40" stroke-width="0.0421" stroke-miterlimit="10" d="M30.367,8.672l1.964,22.579
				c0,0-1.546-0.793-3.359-0.472c-1.813,0.321-2.992,1.597-2.992,1.597l-5.916-21.879c0,0,1.549-1.976,4.859-2.563
				S30.367,8.672,30.367,8.672z M33.448,35.556c0.344,1.943-0.951,3.797-2.894,4.141s-3.797-0.951-4.141-2.894
				s0.951-3.797,2.894-4.141S33.103,33.613,33.448,35.556z"/>
		</g>
		<g>
			<path fill="#103E60" stroke="#0B2D40" stroke-width="0.0313" stroke-miterlimit="10" d="M17.849,16.234l4.92,16.118
				c0,0-1.247-0.338-2.516,0.176s-1.929,1.624-1.929,1.624l-7.686-14.997c0,0,0.821-1.677,3.137-2.615
				C16.093,15.602,17.849,16.234,17.849,16.234z M24.247,35.31c0.551,1.36-0.105,2.909-1.464,3.459
				c-1.36,0.551-2.909-0.105-3.459-1.464s0.105-2.909,1.464-3.459C22.147,33.295,23.696,33.95,24.247,35.31z"/>
		</g>
		<g>
			<path fill="#103E60" stroke="#0B2D40" stroke-width="0.0421" stroke-miterlimit="10" d="M144.304,7.935
				c3.31,0.587,4.859,2.563,4.859,2.563l-5.916,21.879c0,0-1.179-1.276-2.992-1.597c-1.813-0.321-3.359,0.472-3.359,0.472
				l1.964-22.579C138.86,8.672,140.994,7.348,144.304,7.935z M139.921,32.661c1.943,0.344,3.239,2.198,2.894,4.141
				c-0.344,1.943-2.198,3.239-4.141,2.894s-3.239-2.198-2.894-4.141C136.125,33.613,137.979,32.317,139.921,32.661z"/>
		</g>
		<g>
			<path fill="#103E60" stroke="#0B2D40" stroke-width="0.0313" stroke-miterlimit="10" d="M155.451,16.54
				c2.317,0.939,3.137,2.615,3.137,2.615l-7.686,14.997c0,0-0.66-1.11-1.929-1.624s-2.516-0.176-2.516-0.176l4.92-16.118
				C151.378,16.234,153.135,15.602,155.451,16.54z M148.44,33.845c1.36,0.551,2.015,2.1,1.464,3.459s-2.1,2.015-3.459,1.464
				c-1.36-0.551-2.015-2.1-1.464-3.459S147.081,33.295,148.44,33.845z"/>
		</g>
	</g>
</g>
<g id="Layer_4">
</g>
<g id="Layer_2">
	<g>
		<g>
			<path fill="#E5332A" d="M44.196,27.276v9.236h-5.629V11.164h7.517c1.685,0,4.18,0,6.135,1.382
				c1.651,1.18,2.663,3.202,2.663,6.371c0,3.64-1.314,5.932-3.438,7.146l4.281,10.449h-6.337l-3.202-9.236H44.196z M44.196,22.591
				h1.989c0.472,0,1.348,0,1.921-0.438c0.573-0.472,0.944-1.551,0.944-3c0-1.348-0.304-2.359-0.91-2.865
				c-0.607-0.472-1.45-0.472-1.888-0.472h-2.056V22.591z"/>
			<path fill="#E5332A" d="M64.322,11.164v25.347h-5.898V11.164H64.322z"/>
			<path fill="#E5332A" d="M80.57,16.254h-0.236c0,0-2.359-0.775-4.146-0.775c-1.685,0-2.46,0.708-2.46,1.988
				c0,1.921,1.854,2.865,3.809,4.348c2.157,1.618,4.011,3.438,4.011,7.314c0,4.989-3.067,7.584-8.595,7.584
				c-2.933,0-5.09-0.742-5.09-0.742v-4.685h0.236c0,0,2.629,0.91,4.55,0.91c1.786,0,2.797-0.775,2.797-2.258
				c0-2.191-2.292-3.404-4.382-5.09c-1.752-1.416-3.438-3.101-3.438-6.64c0-4.651,2.865-7.247,8.124-7.247
				c2.629,0,4.82,0.641,4.82,0.641V16.254z"/>
			<path fill="#E5332A" d="M90.549,11.164v25.347h-5.898V11.164H90.549z"/>
			<path fill="#E5332A" d="M100.427,11.164v9.876l5.832-9.876h5.696l-6.034,9.842l6.202,15.505h-6.404l-3.741-10.044l-1.551,2.124
				v7.921h-5.764V11.164H100.427z"/>
			<path fill="#E5332A" d="M129.418,33.815c-1.584,2.056-4.213,3.101-7.348,3.101c-3.168,0-5.696-1.045-7.281-3.135
				c-1.719-2.258-2.225-5.696-2.225-9.91c0-4.719,0.641-7.854,2.326-10.011c1.618-2.056,4.146-3.101,7.314-3.101
				s5.73,1.045,7.314,3.135c1.719,2.258,2.225,5.528,2.225,9.708C131.744,28.321,131.103,31.658,129.418,33.815z M124.699,30.748
				c0.607-1.18,0.809-2.899,0.809-6.91c0-4.011-0.202-5.73-0.809-6.91c-0.505-0.944-1.281-1.517-2.562-1.517
				c-1.247,0-2.022,0.573-2.528,1.517c-0.607,1.18-0.809,2.899-0.809,6.91c0,4.011,0.202,5.73,0.809,6.91
				c0.505,0.944,1.281,1.517,2.528,1.517C123.418,32.264,124.193,31.692,124.699,30.748z"/>
		</g>
	</g>
</g>
<g id="Layer_3">
</g>
<g id="Layer_5">
</g>
</svg>
