<?xml version="1.0" encoding="utf-8"?>
<!-- Generator: Adobe Illustrator 17.1.0, SVG Export Plug-In . SVG Version: 6.00 Build 0)  -->
<!DOCTYPE svg PUBLIC "-//W3C//DTD SVG 1.1//EN" "http://www.w3.org/Graphics/SVG/1.1/DTD/svg11.dtd">
<svg version="1.1" xmlns="http://www.w3.org/2000/svg" xmlns:xlink="http://www.w3.org/1999/xlink" x="0px" y="0px"
	 viewBox="0 0 159.854 51.417" enable-background="new 0 0 159.854 51.417" xml:space="preserve">
<g id="Layer_1">
	<g>
		<g>
			<path fill="#103E60" stroke="#0B2D40" stroke-width="0.0421" stroke-miterlimit="10" d="M26.219,10.139l1.964,22.579
				c0,0-1.546-0.793-3.359-0.472c-1.813,0.321-2.992,1.597-2.992,1.597l-5.916-21.879c0,0,1.549-1.976,4.859-2.563
				C24.086,8.815,26.219,10.139,26.219,10.139z M29.3,37.023c0.344,1.943-0.951,3.797-2.894,4.141
				c-1.943,0.344-3.797-0.951-4.141-2.894c-0.344-1.943,0.951-3.797,2.894-4.141S28.955,35.08,29.3,37.023z"/>
		</g>
		<g>
			<path fill="#103E60" stroke="#0B2D40" stroke-width="0.0313" stroke-miterlimit="10" d="M13.701,17.702l4.92,16.118
				c0,0-1.247-0.338-2.516,0.176c-1.269,0.514-1.929,1.624-1.929,1.624L6.491,20.623c0,0,0.821-1.677,3.137-2.615
				C11.945,17.069,13.701,17.702,13.701,17.702z M20.099,36.777c0.551,1.36-0.105,2.909-1.464,3.459
				c-1.36,0.551-2.909-0.105-3.459-1.464c-0.551-1.36,0.105-2.909,1.464-3.459C17.999,34.762,19.548,35.417,20.099,36.777z"/>
		</g>
		<g>
			<path fill="#103E60" stroke="#0B2D40" stroke-width="0.0421" stroke-miterlimit="10" d="M140.156,9.402
				c3.31,0.587,4.859,2.563,4.859,2.563l-5.916,21.879c0,0-1.179-1.276-2.992-1.597s-3.359,0.472-3.359,0.472l1.964-22.579
				C134.712,10.139,136.846,8.815,140.156,9.402z M135.774,34.129c1.943,0.344,3.239,2.198,2.894,4.141
				c-0.344,1.943-2.198,3.239-4.141,2.894c-1.943-0.344-3.239-2.198-2.894-4.141C131.977,35.08,133.831,33.784,135.774,34.129z"/>
		</g>
		<g>
			<path fill="#103E60" stroke="#0B2D40" stroke-width="0.0313" stroke-miterlimit="10" d="M151.304,18.007
				c2.317,0.939,3.137,2.615,3.137,2.615l-7.686,14.997c0,0-0.66-1.11-1.929-1.624c-1.269-0.514-2.516-0.176-2.516-0.176
				l4.92-16.118C147.23,17.702,148.987,17.069,151.304,18.007z M144.292,35.313c1.36,0.551,2.015,2.1,1.464,3.459
				c-0.551,1.36-2.1,2.015-3.459,1.464c-1.36-0.551-2.015-2.1-1.464-3.459C141.384,35.417,142.933,34.762,144.292,35.313z"/>
		</g>
	</g>
</g>
<g id="Layer_4">
</g>
<g id="Layer_2">
	<g>
		<g>
			<path fill="#E5332A" d="M40.049,28.743v9.235h-5.63V12.631h7.517c1.686,0,4.18,0,6.135,1.382c1.652,1.18,2.663,3.202,2.663,6.371
				c0,3.641-1.314,5.933-3.438,7.146l4.281,10.449h-6.337l-3.202-9.235H40.049z M40.049,24.058h1.988c0.472,0,1.349,0,1.921-0.438
				c0.573-0.472,0.944-1.55,0.944-3c0-1.348-0.304-2.359-0.91-2.864c-0.606-0.473-1.449-0.473-1.888-0.473h-2.056V24.058z"/>
			<path fill="#E5332A" d="M60.175,12.631v25.348h-5.899V12.631H60.175z"/>
			<path fill="#E5332A" d="M76.423,17.721h-0.236c0,0-2.359-0.775-4.146-0.775c-1.686,0-2.461,0.708-2.461,1.989
				c0,1.921,1.854,2.864,3.81,4.348c2.157,1.618,4.011,3.438,4.011,7.314c0,4.988-3.067,7.584-8.595,7.584
				c-2.933,0-5.09-0.741-5.09-0.741v-4.686h0.235c0,0,2.63,0.91,4.551,0.91c1.786,0,2.798-0.775,2.798-2.259
				c0-2.19-2.292-3.404-4.382-5.089c-1.753-1.416-3.438-3.102-3.438-6.641c0-4.651,2.865-7.247,8.123-7.247
				c2.63,0,4.82,0.641,4.82,0.641V17.721z"/>
			<path fill="#E5332A" d="M86.402,12.631v25.348h-5.899V12.631H86.402z"/>
			<path fill="#E5332A" d="M96.28,12.631v9.876l5.831-9.876h5.696l-6.033,9.843l6.202,15.505h-6.404L97.83,27.934l-1.55,2.124v7.921
				h-5.765V12.631H96.28z"/>
			<path fill="#E5332A" d="M125.271,35.282c-1.584,2.056-4.214,3.101-7.348,3.101c-3.169,0-5.697-1.045-7.281-3.135
				c-1.719-2.258-2.225-5.696-2.225-9.909c0-4.72,0.641-7.854,2.326-10.011c1.617-2.057,4.146-3.102,7.314-3.102
				c3.168,0,5.729,1.045,7.313,3.135c1.72,2.259,2.225,5.528,2.225,9.708C127.596,29.788,126.956,33.125,125.271,35.282z
				 M120.552,32.215c0.606-1.18,0.809-2.899,0.809-6.91s-0.202-5.73-0.809-6.91c-0.506-0.943-1.281-1.517-2.562-1.517
				c-1.248,0-2.022,0.573-2.528,1.517c-0.606,1.18-0.81,2.899-0.81,6.91s0.203,5.73,0.81,6.91c0.506,0.943,1.28,1.517,2.528,1.517
				C119.271,33.731,120.046,33.158,120.552,32.215z"/>
		</g>
	</g>
</g>
<g id="Layer_3">
</g>
<g id="Layer_5">
</g>
</svg>
