<?xml version="1.0" encoding="utf-8"?>
<!-- Generator: Adobe Illustrator 17.1.0, SVG Export Plug-In . SVG Version: 6.00 Build 0)  -->
<!DOCTYPE svg PUBLIC "-//W3C//DTD SVG 1.1//EN" "http://www.w3.org/Graphics/SVG/1.1/DTD/svg11.dtd">
<svg version="1.1" xmlns="http://www.w3.org/2000/svg" xmlns:xlink="http://www.w3.org/1999/xlink" x="0px" y="0px"
	 viewBox="0 0 47.833 157.042" enable-background="new 0 0 47.833 157.042" xml:space="preserve">
<g id="Layer_1">
	<g>
		<g>
			<path fill="#103E60" stroke="#0B2D40" stroke-width="0.0421" stroke-miterlimit="10" d="M10.258,132.025l22.579-1.964
				c0,0-0.793,1.546-0.472,3.359c0.321,1.813,1.597,2.992,1.597,2.992l-21.879,5.916c0,0-1.976-1.549-2.563-4.859
				C8.934,134.159,10.258,132.025,10.258,132.025z M37.142,128.945c1.943-0.344,3.797,0.951,4.141,2.894
				c0.344,1.943-0.951,3.797-2.894,4.141s-3.797-0.951-4.141-2.894C33.903,131.144,35.199,129.29,37.142,128.945z"/>
		</g>
		<g>
			<path fill="#103E60" stroke="#0B2D40" stroke-width="0.0313" stroke-miterlimit="10" d="M17.82,144.544l16.118-4.92
				c0,0-0.338,1.247,0.176,2.516c0.514,1.269,1.624,1.929,1.624,1.929l-14.997,7.686c0,0-1.677-0.821-2.615-3.137
				S17.82,144.544,17.82,144.544z M36.896,138.146c1.36-0.551,2.909,0.105,3.459,1.464s-0.105,2.909-1.464,3.459
				c-1.36,0.551-2.909-0.105-3.459-1.464C34.881,140.246,35.536,138.697,36.896,138.146z"/>
		</g>
		<g>
			<path fill="#103E60" stroke="#0B2D40" stroke-width="0.0421" stroke-miterlimit="10" d="M9.521,18.089
				c0.587-3.31,2.563-4.859,2.563-4.859l21.879,5.916c0,0-1.276,1.179-1.597,2.992c-0.321,1.813,0.472,3.359,0.472,3.359
				l-22.579-1.964C10.258,23.533,8.934,21.399,9.521,18.089z M34.248,22.471c0.344-1.943,2.198-3.239,4.141-2.894
				c1.943,0.344,3.239,2.198,2.894,4.141s-2.198,3.239-4.141,2.894S33.903,24.414,34.248,22.471z"/>
		</g>
		<g>
			<path fill="#103E60" stroke="#0B2D40" stroke-width="0.0313" stroke-miterlimit="10" d="M18.126,6.941
				c0.939-2.317,2.615-3.137,2.615-3.137l14.997,7.686c0,0-1.11,0.66-1.624,1.929c-0.514,1.269-0.176,2.516-0.176,2.516
				l-16.118-4.92C17.82,11.014,17.188,9.258,18.126,6.941z M35.432,13.953c0.551-1.36,2.1-2.015,3.459-1.464
				c1.36,0.551,2.015,2.1,1.464,3.459s-2.1,2.015-3.459,1.464C35.536,16.861,34.881,15.312,35.432,13.953z"/>
		</g>
	</g>
</g>
<g id="Layer_4">
</g>
<g id="Layer_2">
	<g>
		<g>
			<path fill="#E5332A" d="M28.861,118.196h9.236v5.63H12.75v-7.517c0-1.686,0-4.18,1.382-6.135c1.18-1.652,3.202-2.663,6.371-2.663
				c3.64,0,5.932,1.314,7.146,3.438l10.449-4.281v6.337l-9.236,3.202V118.196z M24.176,118.196v-1.988c0-0.472,0-1.349-0.438-1.921
				c-0.472-0.573-1.551-0.944-3-0.944c-1.348,0-2.359,0.304-2.865,0.91c-0.472,0.606-0.472,1.449-0.472,1.888v2.056H24.176z"/>
			<path fill="#E5332A" d="M12.75,98.07h25.347v5.899H12.75V98.07z"/>
			<path fill="#E5332A" d="M17.84,81.822v0.236c0,0-0.775,2.359-0.775,4.146c0,1.686,0.708,2.461,1.988,2.461
				c1.921,0,2.865-1.854,4.348-3.81c1.618-2.157,3.438-4.011,7.314-4.011c4.989,0,7.584,3.067,7.584,8.595
				c0,2.933-0.742,5.09-0.742,5.09h-4.685v-0.235c0,0,0.91-2.63,0.91-4.551c0-1.786-0.775-2.798-2.258-2.798
				c-2.191,0-3.404,2.292-5.09,4.382c-1.416,1.753-3.101,3.438-6.64,3.438c-4.651,0-7.247-2.865-7.247-8.123
				c0-2.63,0.641-4.82,0.641-4.82H17.84z"/>
			<path fill="#E5332A" d="M12.75,71.843h25.347v5.899H12.75V71.843z"/>
			<path fill="#E5332A" d="M12.75,61.965h9.876l-9.876-5.831v-5.696l9.842,6.033l15.505-6.202v6.404l-10.044,3.742l2.124,1.55h7.921
				v5.765H12.75V61.965z"/>
			<path fill="#E5332A" d="M35.401,32.975c2.056,1.584,3.101,4.214,3.101,7.348c0,3.169-1.045,5.697-3.135,7.281
				c-2.258,1.719-5.696,2.225-9.91,2.225c-4.719,0-7.854-0.641-10.011-2.326c-2.056-1.617-3.101-4.146-3.101-7.314
				c0-3.168,1.045-5.729,3.135-7.313c2.258-1.72,5.528-2.225,9.708-2.225C29.906,30.649,33.243,31.289,35.401,32.975z
				 M32.334,37.693c-1.18-0.606-2.899-0.809-6.91-0.809c-4.011,0-5.73,0.202-6.91,0.809c-0.944,0.506-1.517,1.281-1.517,2.562
				c0,1.248,0.573,2.022,1.517,2.528c1.18,0.606,2.899,0.81,6.91,0.81c4.011,0,5.73-0.203,6.91-0.81
				c0.944-0.506,1.517-1.28,1.517-2.528C33.85,38.975,33.278,38.199,32.334,37.693z"/>
		</g>
	</g>
</g>
<g id="Layer_3">
</g>
<g id="Layer_5">
</g>
</svg>
