<?xml version="1.0" encoding="utf-8"?>
<!-- Generator: Adobe Illustrator 17.1.0, SVG Export Plug-In . SVG Version: 6.00 Build 0)  -->
<!DOCTYPE svg PUBLIC "-//W3C//DTD SVG 1.1//EN" "http://www.w3.org/Graphics/SVG/1.1/DTD/svg11.dtd">
<svg version="1.1" xmlns="http://www.w3.org/2000/svg" xmlns:xlink="http://www.w3.org/1999/xlink" x="0px" y="0px"
	 viewBox="0 0 154.583 155.5" enable-background="new 0 0 154.583 155.5" xml:space="preserve">
<g id="Layer_1">
	<g>
		<path fill="#FBC018" d="M27.018,137.11C31.314,71.522,78.309,20.574,135.126,20.574h9.205V137.11H27.018z"/>
		<g>
			<path fill="#3C7CA8" d="M141.455,23.449v110.785H30.121C35.55,71.642,80.715,23.449,135.126,23.449H141.455 M147.206,17.698
				h-12.08c-59.483,0-108.065,54.149-111.147,122.287h123.227V17.698L147.206,17.698z"/>
		</g>
	</g>
	<polygon fill="#3C7CA8" points="77.896,92.675 73.893,107.467 83.81,119.15 68.505,119.914 60.458,132.955 55.001,118.636 
		40.112,115.013 52.045,105.398 50.889,90.118 63.72,98.495 	"/>
</g>
<g id="Layer_4">
</g>
<g id="Layer_2">
</g>
<g id="Layer_3">
	<g>
		<path fill="#3C7CA8" d="M121.82,35.857l2.988-0.681v-3.477L121.82,31v-2.167l13.139,3.337v2.935l-13.139,3.302V35.857z
			 M126.712,32.153v2.586l5.625-1.258L126.712,32.153z"/>
		<path fill="#3C7CA8" d="M134.958,42.877h-9.225c-1.223,0-2.131,0.35-2.131,1.765c0,1.433,0.908,1.765,2.131,1.765h9.225v2.184
			h-8.806c-1.118,0-2.289-0.052-3.215-0.786c-0.821-0.646-1.328-1.712-1.328-3.32c0-1.537,0.472-2.621,1.31-3.284
			c0.891-0.717,2.044-0.787,3.215-0.787h8.823V42.877z"/>
		<path fill="#3C7CA8" d="M132.739,57.549v-0.122c0,0,0.367-1.066,0.367-1.974c0-1.048-0.472-1.59-1.311-1.59
			c-1.258,0-1.765,1.188-2.656,2.323c-0.821,1.048-1.782,1.87-3.616,1.87c-2.568,0-3.809-1.607-3.809-4.158
			c0-1.433,0.384-2.463,0.384-2.463h2.044v0.122c0,0-0.472,1.188-0.472,2.202c0,1.118,0.559,1.765,1.538,1.765
			c1.31,0,1.922-1.188,2.935-2.463c0.716-0.891,1.538-1.73,3.319-1.73c2.289,0,3.599,1.363,3.599,3.896
			c0,1.241-0.314,2.324-0.314,2.324H132.739z"/>
		<path fill="#3C7CA8" d="M134.958,64.029c0,0.978,0,1.921-0.472,2.725c-0.419,0.699-1.188,1.328-2.725,1.328
			c-2.708,0-2.9-1.939-2.9-1.939s-0.14,2.429-3.337,2.429c-1.66,0-2.568-0.646-3.093-1.485c-0.611-0.978-0.611-2.079-0.611-3.04
			v-3.354h13.139V64.029z M123.759,63.05v1.17c0,0.35,0,0.821,0.279,1.241c0.262,0.384,0.682,0.611,1.643,0.611
			s1.397-0.227,1.66-0.646s0.262-0.874,0.262-1.258V63.05H123.759z M129.647,63.05v0.943c0,0.35,0,0.734,0.227,1.066
			s0.646,0.524,1.45,0.524c0.856,0,1.293-0.209,1.502-0.542c0.192-0.314,0.192-0.664,0.192-0.996V63.05H129.647z"/>
		<path fill="#3C7CA8" d="M134.958,73.651H121.82v-2.463h13.139V73.651z"/>
		<path fill="#3C7CA8" d="M134.958,79.328h-11.042v3.512h-2.097v-5.976h13.139V79.328z"/>
		<path fill="#3C7CA8" d="M134.958,88.044c0,1.17,0,2.481-0.751,3.669c-0.786,1.24-2.271,2.097-5.8,2.097
			c-3.39,0-4.979-0.787-5.835-2.149c-0.751-1.188-0.751-2.568-0.751-3.616v-3.005h13.139V88.044z M123.829,87.502v0.821
			c0,0.559,0,1.206,0.402,1.765c0.611,0.874,1.904,1.153,4.176,1.153c2.201,0,3.512-0.262,4.141-1.171
			c0.402-0.576,0.402-1.258,0.402-1.747v-0.821H123.829z"/>
		<path fill="#3C7CA8" d="M134.958,99.047h-9.225c-1.223,0-2.131,0.35-2.131,1.765c0,1.433,0.908,1.765,2.131,1.765h9.225v2.184
			h-8.806c-1.118,0-2.289-0.052-3.215-0.786c-0.821-0.646-1.328-1.712-1.328-3.32c0-1.537,0.472-2.621,1.31-3.284
			c0.891-0.717,2.044-0.787,3.215-0.787h8.823V99.047z"/>
		<path fill="#3C7CA8" d="M134.958,110.417l-8.439,4.175h8.439v2.114H121.82v-2.236l8.596-4.368h-8.596v-2.132h13.139V110.417z"/>
		<path fill="#3C7CA8" d="M128.93,127.989h-6.744c0,0-0.506-1.485-0.506-3.232c0-3.792,2.411-5.276,6.569-5.276
			c4.333,0,6.831,1.625,6.831,5.643c0,1.415-0.314,2.551-0.314,2.551h-2.044v-0.122c0,0,0.367-1.101,0.367-2.306
			c0-2.289-1.311-3.232-4.682-3.232c-3.268,0-4.788,0.891-4.788,2.708c0,0.524,0.123,1.013,0.123,1.013h3.162v-1.555h2.027V127.989z
			"/>
	</g>
	<g>
		<path fill="#3C7CA8" d="M113.882,65.348v-0.194c0,0,0.581-1.688,0.581-3.127c0-1.661-0.747-2.519-2.076-2.519
			c-1.993,0-2.796,1.882-4.208,3.682c-1.301,1.661-2.823,2.961-5.729,2.961c-4.069,0-6.034-2.546-6.034-6.587
			c0-2.27,0.609-3.903,0.609-3.903h3.238v0.193c0,0-0.747,1.882-0.747,3.488c0,1.771,0.886,2.795,2.436,2.795
			c2.076,0,3.045-1.882,4.65-3.902c1.135-1.412,2.436-2.74,5.259-2.74c3.626,0,5.702,2.159,5.702,6.172
			c0,1.965-0.498,3.681-0.498,3.681H113.882z"/>
		<path fill="#3C7CA8" d="M117.397,81.012h-3.294v-4.208H96.582v-3.903h17.521v-4.18h3.294V81.012z"/>
		<path fill="#3C7CA8" d="M96.582,92.856l4.733-1.08v-5.508l-4.733-1.107v-3.433l20.815,5.287v4.65l-20.815,5.231V92.856z
			 M104.332,86.988v4.097l8.913-1.993L104.332,86.988z"/>
		<path fill="#3C7CA8" d="M104.637,104.036h-8.055v-3.765h20.815v5.674c0,1.19,0,3.128-1.024,4.595
			c-0.886,1.273-2.519,2.131-5.148,2.131c-3.073,0-4.899-1.163-5.813-2.934l-8.83,3.709v-4.207l8.055-3.1V104.036z M107.848,104.036
			v1.938c0,0.443-0.028,1.273,0.415,1.854c0.443,0.581,1.467,0.886,2.823,0.886c1.329,0,2.214-0.277,2.685-0.858
			c0.471-0.581,0.471-1.329,0.471-1.827v-1.993H107.848z"/>
		<path fill="#3C7CA8" d="M117.397,127.947h-3.294v-4.208H96.582v-3.903h17.521v-4.18h3.294V127.947z"/>
	</g>
</g>
<g id="Layer_5">
</g>
</svg>
