<?xml version="1.0" encoding="utf-8"?>
<!-- Generator: Adobe Illustrator 17.1.0, SVG Export Plug-In . SVG Version: 6.00 Build 0)  -->
<!DOCTYPE svg PUBLIC "-//W3C//DTD SVG 1.1//EN" "http://www.w3.org/Graphics/SVG/1.1/DTD/svg11.dtd">
<svg version="1.1" xmlns="http://www.w3.org/2000/svg" xmlns:xlink="http://www.w3.org/1999/xlink" x="0px" y="0px"
	 viewBox="0 0 46.427 155.5" enable-background="new 0 0 46.427 155.5" xml:space="preserve">
<g id="Layer_1">
	<g>
		<g>
			<path fill="#103E60" stroke="#0B2D40" stroke-width="0.0421" stroke-miterlimit="10" d="M38.507,23.74l-22.579,1.964
				c0,0,0.793-1.546,0.472-3.359c-0.321-1.813-1.597-2.992-1.597-2.992l21.879-5.916c0,0,1.976,1.549,2.563,4.859
				S38.507,23.74,38.507,23.74z M11.623,26.82c-1.943,0.344-3.797-0.951-4.141-2.894c-0.344-1.943,0.951-3.797,2.894-4.141
				c1.943-0.344,3.797,0.951,4.141,2.894C14.861,24.621,13.565,26.476,11.623,26.82z"/>
		</g>
		<g>
			<path fill="#103E60" stroke="#0B2D40" stroke-width="0.0313" stroke-miterlimit="10" d="M30.944,11.222l-16.118,4.92
				c0,0,0.338-1.247-0.176-2.516c-0.514-1.269-1.624-1.929-1.624-1.929l14.997-7.686c0,0,1.677,0.821,2.615,3.137
				S30.944,11.222,30.944,11.222z M11.868,17.619c-1.36,0.551-2.909-0.105-3.459-1.464c-0.551-1.36,0.105-2.909,1.464-3.459
				s2.909,0.105,3.459,1.464C13.884,15.52,13.228,17.068,11.868,17.619z"/>
		</g>
		<g>
			<path fill="#103E60" stroke="#0B2D40" stroke-width="0.0421" stroke-miterlimit="10" d="M39.244,137.676
				c-0.587,3.31-2.563,4.859-2.563,4.859l-21.879-5.916c0,0,1.276-1.179,1.597-2.992s-0.472-3.359-0.472-3.359l22.579,1.964
				C38.507,132.233,39.83,134.366,39.244,137.676z M14.517,133.294c-0.344,1.943-2.198,3.239-4.141,2.894
				c-1.943-0.344-3.239-2.198-2.894-4.141c0.344-1.943,2.198-3.239,4.141-2.894C13.565,129.497,14.861,131.351,14.517,133.294z"/>
		</g>
		<g>
			<path fill="#103E60" stroke="#0B2D40" stroke-width="0.0313" stroke-miterlimit="10" d="M30.638,148.824
				c-0.939,2.317-2.615,3.137-2.615,3.137l-14.997-7.686c0,0,1.11-0.66,1.624-1.929c0.514-1.269,0.176-2.516,0.176-2.516
				l16.118,4.92C30.944,144.751,31.577,146.507,30.638,148.824z M13.333,141.813c-0.551,1.36-2.1,2.015-3.459,1.464
				s-2.015-2.1-1.464-3.459c0.551-1.36,2.1-2.015,3.459-1.464S13.884,140.453,13.333,141.813z"/>
		</g>
	</g>
</g>
<g id="Layer_4">
</g>
<g id="Layer_2">
	<g>
		<g>
			<path fill="#E5332A" d="M19.902,37.568h-9.235v-5.629h25.348v7.517c0,1.685,0,4.18-1.382,6.135
				c-1.18,1.651-3.202,2.663-6.371,2.663c-3.641,0-5.933-1.314-7.146-3.438l-10.449,4.281v-6.337l9.235-3.202V37.568z
				 M24.588,37.568v1.989c0,0.472,0,1.348,0.438,1.921c0.472,0.573,1.55,0.944,3,0.944c1.348,0,2.359-0.304,2.864-0.91
				c0.473-0.607,0.473-1.45,0.473-1.888v-2.056H24.588z"/>
			<path fill="#E5332A" d="M36.015,57.694H10.667v-5.898h25.348V57.694z"/>
			<path fill="#E5332A" d="M30.925,73.942v-0.236c0,0,0.775-2.359,0.775-4.146c0-1.685-0.708-2.46-1.989-2.46
				c-1.921,0-2.865,1.854-4.348,3.809c-1.618,2.157-3.438,4.011-7.314,4.011c-4.988,0-7.584-3.067-7.584-8.595
				c0-2.933,0.741-5.09,0.741-5.09h4.686v0.236c0,0-0.91,2.629-0.91,4.55c0,1.786,0.775,2.797,2.259,2.797
				c2.19,0,3.404-2.292,5.089-4.382c1.416-1.752,3.102-3.438,6.641-3.438c4.651,0,7.247,2.865,7.247,8.124
				c0,2.629-0.641,4.82-0.641,4.82H30.925z"/>
			<path fill="#E5332A" d="M36.015,83.921H10.667v-5.898h25.348V83.921z"/>
			<path fill="#E5332A" d="M36.015,93.799h-9.876l9.876,5.832v5.696l-9.843-6.034l-15.505,6.202v-6.404l10.045-3.741l-2.124-1.551
				h-7.921v-5.764h25.348V93.799z"/>
			<path fill="#E5332A" d="M13.363,122.79c-2.056-1.584-3.101-4.213-3.101-7.348c0-3.168,1.045-5.696,3.135-7.281
				c2.258-1.719,5.696-2.225,9.909-2.225c4.72,0,7.854,0.641,10.012,2.326c2.056,1.618,3.101,4.146,3.101,7.314
				s-1.045,5.73-3.135,7.314c-2.259,1.719-5.528,2.225-9.708,2.225C18.857,125.116,15.52,124.475,13.363,122.79z M16.431,118.071
				c1.18,0.607,2.899,0.809,6.91,0.809s5.73-0.202,6.91-0.809c0.943-0.505,1.517-1.281,1.517-2.562c0-1.247-0.573-2.022-1.517-2.528
				c-1.18-0.607-2.899-0.809-6.91-0.809s-5.73,0.202-6.91,0.809c-0.943,0.505-1.517,1.281-1.517,2.528
				C14.914,116.79,15.487,117.565,16.431,118.071z"/>
		</g>
	</g>
</g>
<g id="Layer_3">
</g>
<g id="Layer_5">
</g>
</svg>
