<?xml version="1.0" encoding="utf-8"?>
<!-- Generator: Adobe Illustrator 17.1.0, SVG Export Plug-In . SVG Version: 6.00 Build 0)  -->
<!DOCTYPE svg PUBLIC "-//W3C//DTD SVG 1.1//EN" "http://www.w3.org/Graphics/SVG/1.1/DTD/svg11.dtd">
<svg version="1.1" xmlns="http://www.w3.org/2000/svg" xmlns:xlink="http://www.w3.org/1999/xlink" x="0px" y="0px"
	 viewBox="0 0 159.667 155.5" enable-background="new 0 0 159.667 155.5" xml:space="preserve">
<g id="Layer_1">
	<g>
		<path fill="#0E3047" d="M20.357,137.11V20.574h9.205c56.816,0,103.812,50.948,108.107,116.537H20.357z"/>
		<g>
			<path fill="#66A4D9" d="M29.562,23.45c54.411,0,99.576,48.193,105.005,110.785H23.232V23.45H29.562 M29.562,17.698h-12.08
				v122.287h123.227C137.627,71.847,89.044,17.698,29.562,17.698L29.562,17.698z"/>
		</g>
	</g>
	<g>
		
			<text transform="matrix(1 0 0 1 33.2935 74.377)" fill="#66A4D9" font-family="'BerninoSans-CondensedBold'" font-size="54.6345" letter-spacing="2">ยง</text>
	</g>
</g>
<g id="Layer_4">
</g>
<g id="Layer_2">
</g>
<g id="Layer_3">
	<g>
		<path fill="#66A4D9" d="M39.537,103.093v6.443c0,0-1.419,0.484-3.089,0.484c-3.622,0-5.041-2.303-5.041-6.276
			c0-4.14,1.553-6.527,5.392-6.527c1.353,0,2.438,0.3,2.438,0.3v1.953h-0.117c0,0-1.052-0.351-2.203-0.351
			c-2.187,0-3.088,1.252-3.088,4.474c0,3.122,0.851,4.574,2.587,4.574c0.501,0,0.969-0.117,0.969-0.117v-3.021h-1.486v-1.936H39.537
			z"/>
		<path fill="#66A4D9" d="M48.438,97.334v1.953h-3.739v3.122h3.139v1.953h-3.139v3.572h3.906v1.953h-6.243V97.334H48.438z"/>
		<path fill="#66A4D9" d="M56.688,99.454h-0.117c0,0-1.018-0.351-1.886-0.351c-1.002,0-1.52,0.451-1.52,1.252
			c0,1.202,1.136,1.686,2.221,2.537c1.001,0.785,1.786,1.703,1.786,3.456c0,2.454-1.536,3.639-3.973,3.639
			c-1.369,0-2.354-0.367-2.354-0.367v-1.953h0.117c0,0,1.135,0.451,2.104,0.451c1.068,0,1.686-0.534,1.686-1.469
			c0-1.252-1.135-1.836-2.354-2.805c-0.852-0.685-1.652-1.469-1.652-3.171c0-2.187,1.302-3.439,3.723-3.439
			c1.185,0,2.22,0.3,2.22,0.3V99.454z"/>
		<path fill="#66A4D9" d="M65.773,97.334v1.953h-3.739v3.122h3.139v1.953h-3.139v3.572h3.906v1.953h-6.243V97.334H65.773z"/>
		<path fill="#66A4D9" d="M75.075,97.334v1.986h-2.537v10.567h-2.354V99.32h-2.521v-1.986H75.075z"/>
		<path fill="#66A4D9" d="M83.592,99.087l-4.24,8.831h4.308v1.97h-6.944v-1.77l4.256-8.814h-4.123v-1.97h6.744V99.087z"/>
		<path fill="#66A4D9" d="M92.359,97.334v1.953H88.62v3.122h3.139v1.953H88.62v3.572h3.906v1.953h-6.243V97.334H92.359z"/>
		<path fill="#66A4D9" d="M100.61,99.454h-0.117c0,0-1.018-0.351-1.886-0.351c-1.002,0-1.52,0.451-1.52,1.252
			c0,1.202,1.136,1.686,2.221,2.537c1.001,0.785,1.786,1.703,1.786,3.456c0,2.454-1.536,3.639-3.973,3.639
			c-1.369,0-2.354-0.367-2.354-0.367v-1.953h0.117c0,0,1.135,0.451,2.104,0.451c1.068,0,1.686-0.534,1.686-1.469
			c0-1.252-1.135-1.836-2.354-2.805c-0.852-0.685-1.652-1.469-1.652-3.171c0-2.187,1.302-3.439,3.723-3.439
			c1.185,0,2.22,0.3,2.22,0.3V99.454z"/>
		<path fill="#66A4D9" d="M103.184,105.647v-1.886h4.34v1.886H103.184z"/>
		<path fill="#66A4D9" d="M33.36,113.041l2.17,9.749l2.237-9.749h2.086l-3.222,12.553h-2.57l-3.172-12.553H33.36z"/>
		<path fill="#66A4D9" d="M48.07,113.041v1.953h-3.739v3.122h3.139v1.953h-3.139v3.572h3.906v1.953h-6.243v-12.553H48.07z"/>
		<path fill="#66A4D9" d="M53.099,120.736v4.858h-2.271v-12.553h3.422c0.719,0,1.887,0,2.771,0.618
			c0.768,0.534,1.285,1.519,1.285,3.105c0,1.853-0.701,2.955-1.77,3.505l2.237,5.325h-2.537l-1.87-4.858H53.099z M53.099,118.8
			h1.169c0.267,0,0.768,0.017,1.118-0.25s0.534-0.885,0.534-1.703c0-0.801-0.167-1.335-0.518-1.619
			c-0.351-0.284-0.802-0.284-1.102-0.284h-1.202V118.8z"/>
		<path fill="#66A4D9" d="M63.454,113.041v10.55h3.354v2.003h-5.709v-12.553H63.454z"/>
		<path fill="#66A4D9" d="M74.991,113.041v1.953h-3.739v3.122h3.139v1.953h-3.139v3.572h3.906v1.953h-6.243v-12.553H74.991z"/>
		<path fill="#66A4D9" d="M84.293,113.041v1.986h-2.537v10.567h-2.354v-10.567h-2.521v-1.986H84.293z"/>
		<path fill="#66A4D9" d="M92.81,114.793l-4.24,8.831h4.308v1.97h-6.944v-1.77l4.256-8.814h-4.123v-1.97h6.744V114.793z"/>
		<path fill="#66A4D9" d="M97.805,113.041v8.814c0,1.168,0.334,2.037,1.687,2.037c1.369,0,1.686-0.868,1.686-2.037v-8.814h2.087
			v8.414c0,1.068-0.05,2.187-0.751,3.071c-0.618,0.785-1.636,1.269-3.172,1.269c-1.469,0-2.504-0.451-3.138-1.252
			c-0.685-0.851-0.752-1.953-0.752-3.071v-8.43H97.805z"/>
		<path fill="#66A4D9" d="M108.677,113.041l3.99,8.063v-8.063h2.02v12.553h-2.137l-4.173-8.213v8.213h-2.037v-12.553H108.677z"/>
		<path fill="#66A4D9" d="M125.476,118.8v6.443c0,0-1.419,0.484-3.089,0.484c-3.622,0-5.041-2.304-5.041-6.277
			c0-4.14,1.553-6.527,5.392-6.527c1.353,0,2.438,0.3,2.438,0.3v1.953h-0.117c0,0-1.052-0.351-2.203-0.351
			c-2.187,0-3.088,1.252-3.088,4.474c0,3.122,0.851,4.574,2.587,4.574c0.501,0,0.969-0.117,0.969-0.117v-3.021h-1.486V118.8H125.476
			z"/>
	</g>
</g>
<g id="Layer_5">
</g>
</svg>
