<?xml version="1.0" encoding="utf-8"?>
<!-- Generator: Adobe Illustrator 17.1.0, SVG Export Plug-In . SVG Version: 6.00 Build 0)  -->
<!DOCTYPE svg PUBLIC "-//W3C//DTD SVG 1.1//EN" "http://www.w3.org/Graphics/SVG/1.1/DTD/svg11.dtd">
<svg version="1.1" xmlns="http://www.w3.org/2000/svg" xmlns:xlink="http://www.w3.org/1999/xlink" x="0px" y="0px"
	 viewBox="0 0 159.854 157.042" enable-background="new 0 0 159.854 157.042" xml:space="preserve">
<g id="Layer_1">
	<g>
		<path fill="#FBC018" d="M19.541,18.652h116.416v9.099c0,56.306-50.895,102.879-116.416,107.136V18.652z"/>
		<g>
			<path fill="#3C7CA8" d="M133.082,21.527v6.224c0,53.908-48.138,98.656-110.665,104.036V21.527H133.082 M138.833,15.776H16.665
				v122.149c68.071-3.055,122.167-51.212,122.167-110.174V15.776L138.833,15.776z"/>
		</g>
	</g>
	<g>
		<path fill="#FFFFFF" stroke="#3C7CA8" stroke-width="1.5332" stroke-miterlimit="10" d="M81.632,41.849v4.6
			c0,0,0.11,1.205-0.767,1.643s-5.366,0.548-9.747,2.519c-4.381,1.971-7.776,5.038-13.69,5.038S45.82,48.529,45.82,41.411
			s6.461-13.69,12.704-13.69s8.542,3.833,13.361,5.585c4.821,1.753,7.995,1.205,9.09,2.19C82.07,36.482,81.632,41.849,81.632,41.849
			z"/>
		
			<line fill="none" stroke="#3C7CA8" stroke-width="1.7523" stroke-linecap="round" stroke-miterlimit="10" x1="83.713" y1="47.653" x2="83.713" y2="35.935"/>
		
			<line fill="none" stroke="#3C7CA8" stroke-width="1.7523" stroke-linecap="round" stroke-miterlimit="10" x1="86.012" y1="47.653" x2="86.012" y2="35.935"/>
		
			<line fill="none" stroke="#3C7CA8" stroke-width="1.7523" stroke-linecap="round" stroke-miterlimit="10" x1="88.312" y1="47.653" x2="88.312" y2="35.935"/>
		<path fill="#3C7CA8" d="M89.971,46.01v-8.469c0,0,1.976,0.645,1.976,4.194S89.971,46.01,89.971,46.01z"/>
	</g>
</g>
<g id="Layer_4">
</g>
<g id="Layer_2">
</g>
<g id="Layer_3">
	<g>
		<path fill="#3C7CA8" d="M41.24,118.519l-2.987,0.681v3.477l2.987,0.699v2.167l-13.139-3.338v-2.935l13.139-3.303V118.519z
			 M36.349,122.222v-2.585l-5.626,1.258L36.349,122.222z"/>
		<path fill="#3C7CA8" d="M28.102,111.498h9.226c1.223,0,2.131-0.35,2.131-1.765c0-1.433-0.908-1.765-2.131-1.765h-9.226v-2.184
			h8.806c1.118,0,2.289,0.052,3.215,0.786c0.821,0.646,1.328,1.712,1.328,3.319c0,1.537-0.472,2.62-1.311,3.284
			c-0.892,0.717-2.044,0.786-3.215,0.786h-8.823V111.498z"/>
		<path fill="#3C7CA8" d="M30.32,96.825v0.123c0,0-0.366,1.065-0.366,1.974c0,1.049,0.472,1.59,1.31,1.59
			c1.259,0,1.765-1.188,2.656-2.323c0.821-1.049,1.782-1.87,3.616-1.87c2.568,0,3.809,1.607,3.809,4.158
			c0,1.433-0.384,2.464-0.384,2.464h-2.044v-0.122c0,0,0.472-1.188,0.472-2.201c0-1.118-0.56-1.765-1.538-1.765
			c-1.311,0-1.922,1.188-2.935,2.463c-0.717,0.892-1.538,1.729-3.32,1.729c-2.288,0-3.599-1.362-3.599-3.896
			c0-1.24,0.314-2.324,0.314-2.324H30.32z"/>
		<path fill="#3C7CA8" d="M28.102,90.347c0-0.979,0-1.922,0.472-2.726c0.42-0.698,1.188-1.327,2.726-1.327
			c2.708,0,2.9,1.938,2.9,1.938s0.14-2.428,3.337-2.428c1.66,0,2.568,0.646,3.093,1.484c0.611,0.979,0.611,2.079,0.611,3.04v3.354
			H28.102V90.347z M33.413,91.325v-0.943c0-0.35,0-0.733-0.228-1.065c-0.227-0.332-0.646-0.524-1.45-0.524
			c-0.855,0-1.292,0.21-1.502,0.542c-0.192,0.314-0.192,0.663-0.192,0.995v0.996H33.413z M39.301,91.325v-1.171
			c0-0.349,0-0.82-0.279-1.24c-0.262-0.384-0.682-0.611-1.643-0.611s-1.397,0.228-1.659,0.646c-0.263,0.419-0.263,0.873-0.263,1.258
			v1.118H39.301z"/>
		<path fill="#3C7CA8" d="M28.102,80.724H41.24v2.463H28.102V80.724z"/>
		<path fill="#3C7CA8" d="M28.102,75.047h11.042v-3.512h2.097v5.975H28.102V75.047z"/>
		<path fill="#3C7CA8" d="M28.102,66.331c0-1.171,0-2.48,0.752-3.669c0.786-1.24,2.271-2.097,5.8-2.097
			c3.39,0,4.979,0.786,5.836,2.149c0.751,1.188,0.751,2.568,0.751,3.616v3.005H28.102V66.331z M39.231,66.873v-0.821
			c0-0.56,0-1.206-0.402-1.765c-0.611-0.874-1.904-1.153-4.176-1.153c-2.201,0-3.512,0.263-4.141,1.171
			c-0.401,0.576-0.401,1.258-0.401,1.747v0.821H39.231z"/>
		<path fill="#3C7CA8" d="M28.102,55.328h9.226c1.223,0,2.131-0.35,2.131-1.765c0-1.433-0.908-1.765-2.131-1.765h-9.226v-2.184
			h8.806c1.118,0,2.289,0.052,3.215,0.786c0.821,0.646,1.328,1.712,1.328,3.319c0,1.537-0.472,2.62-1.311,3.284
			c-0.892,0.717-2.044,0.786-3.215,0.786h-8.823V55.328z"/>
		<path fill="#3C7CA8" d="M28.102,43.958l8.438-4.176h-8.438v-2.114H41.24v2.236l-8.596,4.368h8.596v2.131H28.102V43.958z"/>
		<path fill="#3C7CA8" d="M34.13,26.386h6.743c0,0,0.507,1.485,0.507,3.232c0,3.791-2.411,5.276-6.569,5.276
			c-4.333,0-6.831-1.625-6.831-5.644c0-1.415,0.314-2.551,0.314-2.551h2.044v0.122c0,0-0.366,1.101-0.366,2.307
			c0,2.288,1.31,3.231,4.682,3.231c3.268,0,4.787-0.891,4.787-2.708c0-0.523-0.122-1.013-0.122-1.013h-3.162v1.555H34.13V26.386z"/>
	</g>
</g>
<g id="Layer_5">
</g>
</svg>
