<?xml version="1.0" encoding="utf-8"?>
<!-- Generator: Adobe Illustrator 17.1.0, SVG Export Plug-In . SVG Version: 6.00 Build 0)  -->
<!DOCTYPE svg PUBLIC "-//W3C//DTD SVG 1.1//EN" "http://www.w3.org/Graphics/SVG/1.1/DTD/svg11.dtd">
<svg version="1.1" xmlns="http://www.w3.org/2000/svg" xmlns:xlink="http://www.w3.org/1999/xlink" x="0px" y="0px"
	 viewBox="0 0 161.083 157.042" enable-background="new 0 0 161.083 157.042" xml:space="preserve">
<g id="Layer_1">
	<g>
		<path fill="#0E3047" d="M145.334,134.887C79.813,130.63,28.918,84.057,28.918,27.751v-9.099h116.417V134.887z"/>
		<g>
			<path fill="#66A4D9" d="M142.459,21.527v110.259C79.932,126.407,31.794,81.659,31.794,27.751v-6.224H142.459 M148.21,15.776
				H26.043v11.975c0,58.962,54.096,107.119,122.167,110.174V15.776L148.21,15.776z"/>
		</g>
	</g>
	<defs>
		<filter id="Adobe_OpacityMaskFilter" filterUnits="userSpaceOnUse" x="74.298" y="47.856" width="70.517" height="37.841">
			<feColorMatrix  type="matrix" values="1 0 0 0 0  0 1 0 0 0  0 0 1 0 0  0 0 0 1 0"/>
		</filter>
	</defs>
	<mask maskUnits="userSpaceOnUse" x="74.298" y="47.856" width="70.517" height="37.841" id="SVGID_1_">
		<g filter="url(#Adobe_OpacityMaskFilter)">
			<rect x="82.868" y="49.524" fill="#FFFFFF" width="54.096" height="34.506"/>
		</g>
	</mask>
	<g mask="url(#SVGID_1_)">
		<g>
			
				<line fill="none" stroke="#66A4D9" stroke-width="6.4699" stroke-miterlimit="10" x1="89.608" y1="49.703" x2="89.608" y2="84.243"/>
			
				<line fill="none" stroke="#66A4D9" stroke-width="6.4699" stroke-miterlimit="10" x1="129.685" y1="49.703" x2="129.685" y2="84.243"/>
			
				<line fill="none" stroke="#66A4D9" stroke-width="6.4699" stroke-miterlimit="10" x1="116.326" y1="49.703" x2="116.326" y2="84.243"/>
			
				<line fill="none" stroke="#66A4D9" stroke-width="6.4699" stroke-miterlimit="10" x1="102.967" y1="49.703" x2="102.967" y2="84.243"/>
			
				<line fill="none" stroke="#66A4D9" stroke-width="6.4699" stroke-miterlimit="10" x1="75.679" y1="82.772" x2="143.434" y2="50.782"/>
		</g>
	</g>
</g>
<g id="Layer_4">
</g>
<g id="Layer_2">
</g>
<g id="Layer_3">
	<g>
		<g>
			<path fill="#66A4D9" d="M47.624,34.938v7.592c0,0-1.672,0.57-3.639,0.57c-4.268,0-5.94-2.714-5.94-7.396
				c0-4.878,1.829-7.69,6.353-7.69c1.593,0,2.872,0.354,2.872,0.354v2.301h-0.138c0,0-1.239-0.413-2.596-0.413
				c-2.577,0-3.639,1.476-3.639,5.271c0,3.678,1.003,5.39,3.048,5.39c0.59,0,1.141-0.138,1.141-0.138v-3.561h-1.75v-2.281H47.624z"
				/>
			<path fill="#66A4D9" d="M58.11,28.151v2.302h-4.406v3.678h3.698v2.301h-3.698v4.21h4.603v2.301h-7.356V28.151H58.11z"/>
			<path fill="#66A4D9" d="M68.341,28.151v2.341h-4.209v4.366h3.796v2.36h-3.796v5.724h-2.773V28.151H68.341z"/>
			<path fill="#66A4D9" d="M77.391,42.942l-0.767-3.363H72.71l-0.787,3.363h-2.439l3.757-14.791h3.304l3.718,14.791H77.391z
				 M74.126,24.867v2.144h-2.242v-2.144H74.126z M73.222,37.436h2.911l-1.416-6.334L73.222,37.436z M77.804,24.867v2.144h-2.242
				v-2.144H77.804z"/>
			<path fill="#66A4D9" d="M85.419,28.151l4.701,9.5v-9.5h2.38v14.791h-2.518l-4.917-9.677v9.677h-2.399V28.151H85.419z"/>
			<path fill="#66A4D9" d="M105.21,34.938v7.592c0,0-1.672,0.57-3.639,0.57c-4.268,0-5.94-2.714-5.94-7.396
				c0-4.878,1.829-7.69,6.353-7.69c1.593,0,2.872,0.354,2.872,0.354v2.301h-0.138c0,0-1.239-0.413-2.596-0.413
				c-2.577,0-3.639,1.476-3.639,5.271c0,3.678,1.003,5.39,3.048,5.39c0.59,0,1.141-0.138,1.141-0.138v-3.561h-1.751v-2.281H105.21z"
				/>
			<path fill="#66A4D9" d="M111.291,28.151l4.701,9.5v-9.5h2.38v14.791h-2.518l-4.917-9.677v9.677h-2.399V28.151H111.291z"/>
			<path fill="#66A4D9" d="M124.768,28.151v14.791h-2.773V28.151H124.768z"/>
			<path fill="#66A4D9" d="M134.859,30.649h-0.138c0,0-1.2-0.413-2.222-0.413c-1.18,0-1.79,0.531-1.79,1.476
				c0,1.416,1.337,1.986,2.616,2.989c1.18,0.925,2.105,2.006,2.105,4.071c0,2.892-1.81,4.288-4.681,4.288
				c-1.613,0-2.773-0.433-2.773-0.433v-2.302h0.138c0,0,1.337,0.531,2.478,0.531c1.259,0,1.987-0.629,1.987-1.73
				c0-1.476-1.337-2.164-2.773-3.305c-1.003-0.807-1.947-1.73-1.947-3.737c0-2.576,1.534-4.052,4.386-4.052
				c1.396,0,2.616,0.354,2.616,0.354V30.649z"/>
		</g>
	</g>
</g>
<g id="Layer_5">
</g>
</svg>
