<?xml version="1.0" encoding="utf-8"?>
<!-- Generator: Adobe Illustrator 17.1.0, SVG Export Plug-In . SVG Version: 6.00 Build 0)  -->
<!DOCTYPE svg PUBLIC "-//W3C//DTD SVG 1.1//EN" "http://www.w3.org/Graphics/SVG/1.1/DTD/svg11.dtd">
<svg version="1.1" xmlns="http://www.w3.org/2000/svg" xmlns:xlink="http://www.w3.org/1999/xlink" x="0px" y="0px"
	 viewBox="0 0 43.833 44.25" enable-background="new 0 0 43.833 44.25" xml:space="preserve">
<g id="bg">
</g>
<g id="LOGO">
</g>
<g id="felder">
</g>
<g id="playrepics">
</g>
<g id="player_colors">
</g>
<g id="player_inactive" display="none">
</g>
<g id="icons">
</g>
<g id="stars">
</g>
<g id="balken">
</g>
<g id="häuschen">
</g>
<g id="schrift">
</g>
<g id="infoboxes">
</g>
<g id="spielsteine">
</g>
<g id="character_in_infobox">
</g>
<g id="colors" display="none">
</g>
<g id="popup_x5F_RISIKO" display="none">
</g>
<g id="popup_x5F_JOB" display="none">
</g>
<g id="Layer_17">
</g>
<g id="EINSTELLUNGEN">
	<circle fill="#8FC1E4" cx="22.056" cy="22.245" r="21.01"/>
	<path fill="#FFFFFF" d="M18.986,23.486l-1.304,0.022c-0.142-0.307-0.312-0.599-0.506-0.874l0.67-1.118
		c-0.272-0.328-0.574-0.63-0.901-0.901l-1.118,0.67c-0.274-0.194-0.566-0.363-0.874-0.506l0.022-1.304
		c-0.394-0.147-0.806-0.256-1.232-0.328l-0.633,1.139c-0.166-0.015-0.334-0.024-0.505-0.024c-0.17,0-0.338,0.009-0.504,0.024
		l-0.633-1.139c-0.425,0.072-0.837,0.181-1.232,0.328l0.022,1.304c-0.307,0.142-0.599,0.312-0.874,0.506l-1.118-0.67
		c-0.328,0.272-0.63,0.574-0.901,0.901l0.67,1.118c-0.194,0.274-0.363,0.566-0.506,0.874l-1.304-0.022
		c-0.147,0.394-0.256,0.806-0.328,1.232l1.139,0.633c-0.015,0.166-0.024,0.334-0.024,0.504c0,0.17,0.009,0.338,0.024,0.504
		l-1.139,0.633c0.072,0.425,0.181,0.837,0.328,1.232l1.304-0.022c0.142,0.307,0.312,0.599,0.506,0.874l-0.67,1.118
		c0.272,0.328,0.574,0.63,0.901,0.901l1.118-0.67c0.274,0.194,0.566,0.363,0.874,0.506l-0.022,1.304
		c0.394,0.147,0.806,0.256,1.232,0.328l0.633-1.139c0.166,0.015,0.334,0.024,0.504,0.024c0.17,0,0.338-0.009,0.505-0.024
		l0.633,1.139c0.425-0.072,0.837-0.181,1.232-0.328l-0.022-1.304c0.307-0.142,0.599-0.312,0.874-0.506l1.118,0.67
		c0.328-0.272,0.63-0.574,0.901-0.901l-0.67-1.118c0.194-0.274,0.363-0.566,0.506-0.874l1.304,0.022
		c0.147-0.394,0.256-0.806,0.328-1.232l-1.139-0.633c0.015-0.166,0.024-0.334,0.024-0.504c0-0.17-0.009-0.338-0.024-0.504
		l1.139-0.633C19.243,24.292,19.133,23.88,18.986,23.486z M12.607,29.209c-1.853,0-3.355-1.502-3.355-3.355
		c0-1.853,1.502-3.355,3.355-3.355c1.853,0,3.355,1.502,3.355,3.355C15.962,27.707,14.46,29.209,12.607,29.209z"/>
	<path fill="#FFFFFF" d="M29.103,30.704l-1.047-0.147c-0.075-0.264-0.174-0.52-0.295-0.764l0.678-0.811
		c-0.176-0.297-0.38-0.577-0.608-0.836l-0.98,0.396c-0.195-0.19-0.408-0.362-0.636-0.515l0.182-1.042
		c-0.298-0.167-0.614-0.307-0.945-0.418l-0.65,0.833c-0.131-0.033-0.265-0.061-0.401-0.083c-0.136-0.021-0.272-0.036-0.407-0.045
		l-0.363-0.992c-0.35,0.004-0.694,0.04-1.028,0.107l-0.147,1.047c-0.264,0.075-0.52,0.174-0.764,0.295l-0.811-0.678
		c-0.297,0.176-0.577,0.38-0.836,0.608l0.396,0.98c-0.19,0.195-0.362,0.408-0.515,0.636l-1.042-0.182
		c-0.167,0.298-0.307,0.614-0.418,0.945l0.833,0.65c-0.033,0.131-0.061,0.265-0.083,0.401c-0.021,0.136-0.036,0.272-0.045,0.407
		l-0.992,0.363c0.004,0.35,0.04,0.694,0.107,1.028l1.047,0.147c0.075,0.264,0.174,0.52,0.295,0.764l-0.678,0.811
		c0.176,0.297,0.38,0.577,0.608,0.836l0.98-0.396c0.195,0.19,0.408,0.362,0.636,0.515l-0.182,1.042
		c0.298,0.167,0.614,0.307,0.945,0.418l0.65-0.833c0.131,0.033,0.265,0.061,0.401,0.083c0.136,0.021,0.272,0.036,0.407,0.045
		l0.363,0.992c0.35-0.004,0.693-0.04,1.028-0.107l0.147-1.047c0.264-0.075,0.52-0.174,0.764-0.295l0.811,0.678
		c0.297-0.176,0.577-0.38,0.836-0.608l-0.396-0.98c0.19-0.195,0.362-0.408,0.515-0.636l1.042,0.182
		c0.167-0.298,0.307-0.614,0.418-0.945l-0.833-0.65c0.033-0.131,0.061-0.265,0.083-0.401c0.021-0.136,0.036-0.272,0.045-0.407
		l0.992-0.363C29.206,31.383,29.17,31.039,29.103,30.704z M23.271,34.485c-1.484-0.234-2.498-1.626-2.265-3.111
		c0.234-1.484,1.626-2.498,3.111-2.265c1.484,0.234,2.498,1.626,2.265,3.111C26.148,33.705,24.755,34.719,23.271,34.485z"/>
	<path fill="#FFFFFF" d="M34.652,12.967l-1.821,0.03c-0.199-0.429-0.436-0.837-0.706-1.22l0.936-1.562
		c-0.38-0.458-0.801-0.88-1.259-1.259l-1.562,0.936c-0.383-0.27-0.791-0.507-1.22-0.706l0.03-1.821
		c-0.551-0.205-1.126-0.358-1.72-0.458l-0.884,1.591c-0.232-0.021-0.467-0.033-0.705-0.033c-0.238,0-0.472,0.012-0.705,0.033
		l-0.884-1.591c-0.594,0.1-1.169,0.253-1.72,0.458l0.03,1.821c-0.429,0.199-0.837,0.436-1.22,0.706l-1.562-0.936
		c-0.458,0.38-0.879,0.801-1.259,1.259l0.936,1.562c-0.27,0.383-0.507,0.791-0.706,1.22l-1.821-0.03
		c-0.205,0.551-0.358,1.126-0.458,1.72l1.591,0.884c-0.021,0.232-0.033,0.467-0.033,0.705s0.012,0.472,0.033,0.705l-1.591,0.884
		c0.1,0.594,0.253,1.169,0.458,1.72l1.821-0.03c0.199,0.429,0.436,0.837,0.706,1.22l-0.936,1.562
		c0.38,0.458,0.801,0.879,1.259,1.259l1.562-0.936c0.383,0.27,0.791,0.507,1.22,0.706l-0.03,1.821
		c0.551,0.205,1.127,0.358,1.72,0.458l0.884-1.591c0.232,0.021,0.467,0.033,0.705,0.033c0.238,0,0.472-0.012,0.705-0.033
		l0.884,1.591c0.594-0.1,1.169-0.253,1.72-0.458l-0.03-1.821c0.43-0.199,0.837-0.436,1.22-0.706l1.562,0.936
		c0.458-0.38,0.879-0.801,1.259-1.259l-0.936-1.562c0.27-0.383,0.507-0.791,0.706-1.22l1.821,0.03
		c0.205-0.551,0.358-1.126,0.458-1.72l-1.591-0.884c0.021-0.232,0.033-0.467,0.033-0.705s-0.012-0.472-0.033-0.705l1.591-0.884
		C35.01,14.094,34.857,13.518,34.652,12.967z M25.742,20.963c-2.588,0-4.687-2.098-4.687-4.687c0-2.588,2.098-4.687,4.687-4.687
		c2.588,0,4.687,2.098,4.687,4.687C30.428,18.864,28.33,20.963,25.742,20.963z"/>
</g>
<g id="TON_AN_AUS">
</g>
</svg>
