<?xml version="1.0" encoding="utf-8"?>
<!-- Generator: Adobe Illustrator 17.1.0, SVG Export Plug-In . SVG Version: 6.00 Build 0)  -->
<!DOCTYPE svg PUBLIC "-//W3C//DTD SVG 1.1//EN" "http://www.w3.org/Graphics/SVG/1.1/DTD/svg11.dtd">
<svg version="1.1" xmlns="http://www.w3.org/2000/svg" xmlns:xlink="http://www.w3.org/1999/xlink" x="0px" y="0px"
	 viewBox="0 0 43.833 44.25" enable-background="new 0 0 43.833 44.25" xml:space="preserve">
<g id="bg">
</g>
<g id="LOGO">
</g>
<g id="felder">
</g>
<g id="playrepics">
</g>
<g id="player_colors">
</g>
<g id="player_inactive" display="none">
</g>
<g id="icons">
</g>
<g id="stars">
</g>
<g id="balken">
</g>
<g id="häuschen">
</g>
<g id="schrift">
</g>
<g id="infoboxes">
</g>
<g id="spielsteine">
</g>
<g id="character_in_infobox">
</g>
<g id="colors" display="none">
</g>
<g id="popup_x5F_RISIKO" display="none">
</g>
<g id="popup_x5F_JOB" display="none">
</g>
<g id="Layer_17">
</g>
<g id="EINSTELLUNGEN">
	<circle fill="#8FC1E4" cx="21.751" cy="22.506" r="21.01"/>
	<path fill="#FFFFFF" d="M34.816,17.654l-2.67,0.044c-0.292-0.63-0.639-1.228-1.035-1.789l1.373-2.29
		c-0.557-0.671-1.175-1.29-1.846-1.846l-2.29,1.373c-0.562-0.396-1.16-0.744-1.789-1.035l0.044-2.67
		c-0.808-0.3-1.652-0.525-2.522-0.672l-1.296,2.333c-0.341-0.03-0.685-0.049-1.033-0.049c-0.348,0-0.693,0.018-1.033,0.049
		l-1.296-2.333c-0.871,0.147-1.715,0.372-2.522,0.672l0.044,2.67c-0.63,0.292-1.228,0.639-1.789,1.035l-2.29-1.373
		c-0.671,0.557-1.29,1.175-1.846,1.846l1.373,2.29c-0.396,0.562-0.744,1.16-1.035,1.789l-2.67-0.044
		c-0.3,0.808-0.525,1.652-0.672,2.522l2.333,1.296c-0.03,0.341-0.049,0.685-0.049,1.033s0.018,0.693,0.049,1.033l-2.333,1.296
		c0.147,0.871,0.372,1.715,0.672,2.522l2.67-0.044c0.292,0.63,0.639,1.228,1.035,1.789l-1.373,2.29
		c0.557,0.671,1.175,1.29,1.846,1.846l2.29-1.373c0.561,0.396,1.16,0.744,1.789,1.035l-0.044,2.67
		c0.808,0.3,1.652,0.525,2.522,0.672l1.296-2.333c0.341,0.03,0.685,0.049,1.033,0.049c0.349,0,0.693-0.018,1.033-0.049l1.296,2.333
		c0.871-0.147,1.715-0.372,2.522-0.672l-0.044-2.67c0.63-0.292,1.228-0.639,1.789-1.035l2.29,1.373
		c0.671-0.557,1.29-1.175,1.846-1.846l-1.373-2.29c0.397-0.562,0.744-1.16,1.035-1.789l2.67,0.044
		c0.3-0.808,0.525-1.652,0.672-2.522l-2.333-1.296c0.03-0.341,0.049-0.685,0.049-1.033s-0.018-0.693-0.049-1.033l2.333-1.296
		C35.341,19.306,35.116,18.462,34.816,17.654z M21.751,29.378c-3.795,0-6.872-3.077-6.872-6.872c0-3.795,3.077-6.872,6.872-6.872
		c3.795,0,6.872,3.077,6.872,6.872C28.623,26.301,25.546,29.378,21.751,29.378z"/>
</g>
<g id="TON_AN_AUS">
</g>
</svg>
