<?xml version="1.0" encoding="utf-8"?>
<!-- Generator: Adobe Illustrator 17.1.0, SVG Export Plug-In . SVG Version: 6.00 Build 0)  -->
<!DOCTYPE svg PUBLIC "-//W3C//DTD SVG 1.1//EN" "http://www.w3.org/Graphics/SVG/1.1/DTD/svg11.dtd">
<svg version="1.1" xmlns="http://www.w3.org/2000/svg" xmlns:xlink="http://www.w3.org/1999/xlink" x="0px" y="0px"
	 viewBox="0 0 43.833 44.25" enable-background="new 0 0 43.833 44.25" xml:space="preserve">
<g id="bg">
</g>
<g id="LOGO">
</g>
<g id="felder">
</g>
<g id="playrepics">
</g>
<g id="player_colors">
</g>
<g id="player_inactive" display="none">
</g>
<g id="icons">
</g>
<g id="stars">
</g>
<g id="balken">
</g>
<g id="häuschen">
</g>
<g id="schrift">
</g>
<g id="infoboxes">
</g>
<g id="spielsteine">
</g>
<g id="character_in_infobox">
</g>
<g id="colors" display="none">
</g>
<g id="popup_x5F_RISIKO" display="none">
</g>
<g id="popup_x5F_JOB" display="none">
</g>
<g id="Layer_17">
</g>
<g id="EINSTELLUNGEN">
</g>
<g id="TON_AN_AUS">
	<circle fill="#8FC1E4" cx="21.8" cy="22.245" r="21.01"/>
	<path fill="#FFFFFF" d="M30.629,27.345V11.553l0.011-2.111L16.208,11.94l0.005,2.52v13.415c-0.745-0.518-1.757-0.837-2.873-0.837
		c-2.29,0-4.146,1.341-4.146,2.994c0,1.654,1.856,2.994,4.146,2.994c2.154,0,3.924-1.187,4.126-2.704h0.015v-0.168
		c0.002-0.041,0.004-0.081,0.004-0.122c0-0.041-0.002-0.082-0.004-0.123V14.627l11.88-2.063v12.963
		c-0.743-0.507-1.744-0.819-2.847-0.819c-2.29,0-4.146,1.341-4.146,2.994c0,1.654,1.856,2.994,4.146,2.994
		c2.29,0,4.146-1.341,4.146-2.994C30.659,27.581,30.648,27.462,30.629,27.345z"/>
	<path fill="#FFFFFF" stroke="#8FC1E4" stroke-width="0.8489" stroke-miterlimit="10" d="M38.526,32.859L5.276,10.928
		c0,0,0.318-0.601,0.646-1.097C6.314,9.237,6.903,8.77,6.903,8.77l32.843,21.648c0,0,0.016,0.686-0.451,1.512
		C38.95,32.54,38.526,32.859,38.526,32.859z"/>
</g>
</svg>
