<?xml version="1.0" encoding="utf-8"?>
<!-- Generator: Adobe Illustrator 17.1.0, SVG Export Plug-In . SVG Version: 6.00 Build 0)  -->
<!DOCTYPE svg PUBLIC "-//W3C//DTD SVG 1.1//EN" "http://www.w3.org/Graphics/SVG/1.1/DTD/svg11.dtd">
<svg version="1.1" xmlns="http://www.w3.org/2000/svg" xmlns:xlink="http://www.w3.org/1999/xlink" x="0px" y="0px"
	 viewBox="0 0 43.833 44.25" enable-background="new 0 0 43.833 44.25" xml:space="preserve">
<g id="bg">
</g>
<g id="LOGO">
</g>
<g id="felder">
</g>
<g id="playrepics">
</g>
<g id="player_colors">
</g>
<g id="player_inactive" display="none">
</g>
<g id="icons">
</g>
<g id="stars">
</g>
<g id="balken">
</g>
<g id="häuschen">
</g>
<g id="schrift">
</g>
<g id="infoboxes">
</g>
<g id="spielsteine">
</g>
<g id="character_in_infobox">
</g>
<g id="colors" display="none">
	<rect x="16.391" y="38.507" display="inline" fill="#FFD578" width="17.362" height="16.549"/>
	<rect x="16.391" y="23.007" display="inline" fill="#FFECC2" width="17.362" height="16.549"/>
</g>
<g id="popup_x5F_RISIKO" display="none">
</g>
<g id="popup_x5F_JOB" display="none">
</g>
<g id="Layer_17">
</g>
<g id="EINSTELLUNGEN">
</g>
<g id="TON_AN_AUS">
	<circle fill="#8FC1E4" cx="21.621" cy="22.151" r="21.01"/>
	<path fill="#FFFFFF" d="M30.734,27.414V11.203l0.011-2.168L15.93,11.6l0.005,2.587v13.772c-0.765-0.532-1.804-0.859-2.95-0.859
		c-2.35,0-4.256,1.376-4.256,3.074c0,1.698,1.905,3.074,4.256,3.074c2.211,0,4.028-1.218,4.236-2.776h0.016v-0.172
		c0.002-0.042,0.004-0.084,0.004-0.126c0-0.042-0.002-0.084-0.004-0.126v-15.69l12.195-2.118v13.307
		c-0.763-0.521-1.791-0.841-2.923-0.841c-2.35,0-4.256,1.376-4.256,3.074s1.905,3.074,4.256,3.074c2.35,0,4.256-1.376,4.256-3.074
		C30.765,27.656,30.754,27.534,30.734,27.414z"/>
</g>
</svg>
